<?xml version="1.0" standalone="no"?>
<!DOCTYPE svg PUBLIC "-//W3C//DTD SVG 20010904//EN"
 "http://www.w3.org/TR/2001/REC-SVG-20010904/DTD/svg10.dtd">
<svg version="1.0" xmlns="http://www.w3.org/2000/svg"
 width="856.000000pt" height="452.000000pt" viewBox="0 0 856.000000 452.000000"
 preserveAspectRatio="xMidYMid meet">

<g transform="translate(0.000000,452.000000) scale(0.100000,-0.100000)"
fill="#000000" stroke="none">
<path d="M957 3768 c-363 -364 -337 -330 -378 -491 -13 -54 -3 -71 36 -61 11
2 36 9 55 14 19 5 54 14 76 20 35 8 71 39 223 190 100 99 179 185 176 190 -4
6 -11 7 -17 4 -7 -4 -8 -2 -4 5 6 9 11 9 21 1 10 -8 48 25 164 139 83 82 151
153 151 158 -1 18 -40 54 -51 47 -7 -4 -9 -3 -6 3 7 11 -62 86 -94 103 -16 9
-62 -32 -352 -322z m392 217 l44 -44 -29 -35 c-18 -22 -37 -34 -49 -33 -11 1
-18 5 -15 8 6 7 -61 65 -72 62 -13 -5 4 28 31 56 14 16 31 29 36 30 6 0 30
-19 54 -44z m-129 -86 c0 -4 14 -21 32 -38 l32 -30 -127 -129 c-70 -70 -124
-132 -120 -137 5 -4 3 -5 -3 -2 -6 3 -70 -54 -143 -127 -110 -111 -138 -135
-169 -140 -20 -3 -48 -9 -61 -13 -23 -6 -24 -5 -17 33 4 21 12 51 18 66 6 16
125 142 265 282 196 196 259 253 274 249 10 -3 19 -9 19 -14z m120 -63 c0 -3
-4 -8 -10 -11 -5 -3 -10 -1 -10 4 0 6 5 11 10 11 6 0 10 -2 10 -4z"/>
<path d="M7425 4090 c-135 -7 -186 -17 -275 -56 -61 -27 -104 -49 -117 -59 -6
-5 -33 -25 -60 -44 -40 -29 -78 -67 -158 -164 -9 -11 -72 -137 -96 -192 -16
-38 -31 -130 -36 -222 -14 -256 121 -514 342 -657 44 -28 96 -57 115 -65 151
-55 149 -55 312 -55 112 -1 161 3 170 12 6 6 23 12 37 12 15 1 44 9 66 20 22
11 44 19 48 20 14 0 149 90 179 119 15 14 28 32 28 38 0 19 -37 15 -57 -6 -24
-24 -129 -94 -173 -114 -187 -86 -423 -86 -610 0 -104 48 -237 160 -292 248
-51 81 -88 158 -97 203 -5 26 -14 65 -20 87 -28 107 -1 294 61 420 53 109 61
119 137 195 88 87 110 104 206 150 39 18 78 37 88 42 15 7 69 16 197 31 40 5
192 -17 245 -35 55 -19 159 -69 194 -93 7 -5 48 -44 91 -85 87 -85 144 -176
186 -295 25 -72 27 -93 27 -210 0 -106 -4 -143 -22 -202 -21 -67 -22 -93 -2
-93 13 0 40 71 56 145 58 276 -62 584 -294 758 -31 23 -72 50 -91 59 -90 43
-134 59 -151 55 -11 -3 -17 -1 -13 4 3 5 -1 9 -9 9 -8 0 -20 7 -27 15 -7 8
-18 15 -24 15 -6 0 -4 -5 4 -10 12 -8 10 -10 -8 -10 -15 0 -21 -4 -16 -12 4
-7 3 -8 -5 -4 -9 6 -9 11 0 22 6 8 10 13 8 12 -2 0 -67 -4 -144 -8z m185 -25
c0 -9 -6 -12 -16 -8 -13 5 -13 7 -2 14 17 11 18 11 18 -6z"/>
<path d="M5270 4077 c0 -17 15 -21 139 -37 46 -6 91 -15 100 -20 9 -4 52 -25
95 -45 97 -45 91 -41 196 -145 68 -68 93 -102 127 -170 67 -136 78 -186 77
-335 -1 -113 -5 -140 -28 -209 -98 -287 -341 -480 -634 -502 -270 -20 -514
101 -663 331 -42 65 -66 119 -100 235 -20 64 -17 230 4 320 10 41 22 79 26 85
5 5 12 21 16 34 7 23 56 108 80 140 40 53 150 154 198 182 35 21 57 40 57 51
0 10 -4 18 -10 18 -10 0 -63 -22 -70 -30 -3 -3 -24 -18 -47 -34 -24 -16 -43
-33 -43 -37 0 -5 -6 -9 -14 -9 -8 0 -16 -4 -18 -9 -1 -5 -21 -29 -43 -53 -60
-63 -110 -150 -153 -263 -18 -47 -42 -185 -42 -240 0 -65 26 -208 47 -265 22
-57 71 -149 89 -167 8 -8 14 -18 14 -23 0 -26 210 -210 239 -210 5 0 14 -6 20
-14 7 -8 27 -17 46 -20 19 -4 35 -10 35 -14 0 -5 35 -17 78 -27 57 -15 111
-20 207 -20 130 0 195 12 282 51 17 8 34 14 38 14 3 0 41 22 83 49 228 147
362 402 349 666 -7 143 -31 233 -97 354 -36 68 -137 189 -157 190 -7 1 -13 5
-13 9 0 14 -89 74 -155 106 -99 47 -165 66 -262 72 -81 6 -93 5 -93 -9z"/>
<path d="M2625 4063 c-27 -9 -52 -19 -55 -23 -3 -4 -15 -11 -28 -15 -35 -11
-136 -115 -161 -165 -12 -25 -24 -71 -28 -103 -6 -58 -6 -59 18 -55 21 3 25
10 31 57 3 29 14 70 25 90 21 41 110 131 130 131 7 0 13 4 13 10 0 5 16 12 35
16 19 3 38 10 41 15 7 12 170 11 192 -1 9 -5 38 -19 65 -30 26 -11 47 -25 47
-30 0 -5 8 -11 18 -14 10 -4 29 -24 43 -46 13 -22 27 -40 31 -40 3 0 10 -15
13 -32 4 -18 12 -39 19 -47 7 -10 13 -138 16 -415 5 -366 6 -401 22 -404 15
-3 17 28 20 405 3 365 5 411 21 438 9 17 17 34 17 38 0 5 6 14 13 21 6 8 19
24 27 36 21 32 62 69 83 76 9 3 17 10 17 15 0 5 8 9 18 9 9 0 30 7 46 15 36
19 172 20 212 1 97 -45 113 -54 108 -58 -3 -3 7 -9 22 -12 14 -4 24 -9 21 -13
-3 -3 5 -17 19 -32 13 -14 27 -35 30 -46 4 -11 12 -23 18 -27 8 -5 12 -145 14
-476 3 -450 4 -470 22 -487 17 -15 20 -16 25 -3 4 9 5 226 3 484 l-3 469 -33
55 c-36 60 -122 146 -156 156 -12 4 -23 10 -26 14 -22 29 -239 55 -255 30 -3
-5 -15 -10 -25 -10 -18 0 -88 -32 -119 -55 -30 -21 -111 -110 -111 -121 0 -6
-8 -18 -18 -27 -17 -15 -19 -14 -37 16 -54 91 -147 169 -219 182 -20 4 -39 11
-42 16 -8 14 -144 8 -199 -8z m479 -249 c3 -8 2 -12 -4 -9 -6 3 -10 10 -10 16
0 14 7 11 14 -7z"/>
<path d="M269 3959 c-5 -3 -8 -293 -7 -710 l3 -704 584 -3 c423 -1 588 1 597
9 12 9 14 112 14 574 0 310 -3 570 -6 579 -3 9 -15 16 -25 16 -18 0 -19 -17
-19 -565 l0 -565 -550 0 -550 0 0 665 0 665 329 0 c287 0 330 2 335 15 3 9 0
18 -8 21 -18 7 -686 10 -697 3z"/>
<path d="M5180 3814 c-14 -3 -39 -12 -57 -20 -17 -8 -38 -14 -47 -14 -9 0 -16
-4 -16 -9 0 -5 -13 -14 -29 -21 -16 -6 -56 -38 -89 -71 -65 -64 -132 -184
-132 -237 0 -17 -4 -34 -10 -37 -29 -18 -1 -192 47 -292 24 -51 86 -134 105
-141 5 -2 22 -16 38 -30 16 -15 44 -34 62 -43 18 -8 50 -24 71 -34 31 -16 62
-19 161 -20 74 0 132 5 147 12 13 6 50 23 82 37 31 15 57 31 57 36 0 6 4 10 9
10 17 0 61 46 61 64 0 9 -7 16 -16 16 -13 0 -73 -41 -112 -77 -7 -7 -21 -13
-30 -13 -9 0 -25 -7 -36 -15 -18 -14 -79 -24 -167 -29 -52 -3 -126 12 -154 31
-11 7 -25 13 -33 13 -33 0 -141 98 -182 165 -13 22 -27 42 -30 45 -32 28 -51
252 -26 305 9 18 16 40 16 47 0 24 73 130 116 168 41 37 64 53 104 70 14 6 34
15 45 20 96 45 234 37 340 -18 22 -12 51 -26 65 -32 14 -7 48 -38 75 -70 46
-52 59 -74 99 -160 17 -35 42 -33 39 4 -6 76 -71 168 -189 265 -6 5 -20 12
-32 15 -12 4 -22 12 -22 17 0 5 -8 9 -18 9 -10 0 -28 7 -40 16 -17 11 -53 17
-135 19 -62 2 -123 1 -137 -1z"/>
<path d="M7097 3678 c-7 -23 5 -43 48 -78 24 -19 44 -38 44 -41 2 -13 156
-159 168 -159 7 0 13 8 13 18 0 16 -12 32 -52 69 -7 7 -38 37 -68 67 -39 40
-57 52 -63 43 -6 -8 -7 -7 -3 5 3 11 -8 29 -32 52 -40 39 -48 43 -55 24z"/>
<path d="M7428 3349 c-186 -186 -338 -342 -338 -346 0 -5 5 -15 10 -23 8 -12
30 6 117 92 60 59 215 214 346 345 224 223 257 265 217 270 -8 1 -167 -151
-352 -338z"/>
<path d="M2347 3586 c-3 -8 -4 -49 -3 -92 2 -44 4 -274 5 -511 1 -354 3 -433
14 -433 9 0 20 27 31 71 28 116 91 198 192 249 42 21 62 25 149 25 91 0 105
-3 158 -30 57 -28 157 -123 157 -148 0 -7 7 -25 15 -40 8 -16 17 -50 21 -78 5
-38 11 -49 24 -49 14 0 19 12 25 55 19 155 155 281 317 293 70 5 198 -20 198
-39 0 -5 6 -9 13 -9 19 0 90 -70 122 -120 15 -23 31 -68 36 -103 12 -70 15
-77 36 -77 13 0 15 9 9 62 -14 123 -97 236 -216 296 -50 25 -65 27 -170 27
-103 0 -120 -3 -164 -25 -64 -32 -153 -113 -174 -159 -23 -49 -43 -49 -66 -1
-25 52 -98 120 -167 157 -50 26 -62 28 -169 28 -103 0 -121 -3 -170 -26 -55
-27 -150 -108 -150 -129 0 -6 -8 -10 -17 -8 -17 3 -18 32 -21 416 -2 343 -5
412 -16 412 -8 0 -16 -6 -19 -14z"/>
<path d="M5623 3423 c-7 -3 -13 -10 -13 -17 0 -20 124 -136 145 -136 20 0 145
120 145 139 0 5 -8 12 -17 15 -11 5 -31 -7 -62 -36 -25 -24 -47 -46 -49 -50
-8 -17 -30 -6 -68 32 -45 47 -64 59 -81 53z"/>
<path d="M7515 3256 c-19 -13 -12 -22 120 -150 107 -104 142 -133 152 -124 7
6 13 14 13 18 0 4 -47 54 -104 111 -170 170 -159 161 -181 145z m175 -166 c6
-11 8 -20 6 -20 -3 0 -10 9 -16 20 -6 11 -8 20 -6 20 3 0 10 -9 16 -20z"/>
<path d="M353 2283 c9 -2 25 -2 35 0 9 3 1 5 -18 5 -19 0 -27 -2 -17 -5z"/>
<path d="M540 2282 c0 -4 17 -6 38 -4 58 5 62 10 10 11 -27 1 -48 -3 -48 -7z"/>
<path d="M750 2175 c0 -103 2 -115 18 -114 10 0 12 3 5 6 -8 3 -13 25 -13 58
l0 54 63 4 62 3 -62 2 -63 2 0 45 0 44 63 4 62 3 -67 2 -68 2 0 -115z"/>
<path d="M991 2211 c-19 -42 -40 -83 -47 -91 -16 -20 -27 -60 -17 -60 4 0 26
38 48 85 36 78 60 103 69 73 2 -7 7 -22 12 -33 4 -11 8 -22 9 -25 7 -24 51
-100 58 -100 4 0 6 3 4 8 -13 25 -95 199 -98 208 -2 6 -19 -23 -38 -65z"/>
<path d="M1197 2283 l32 -4 4 -112 3 -112 2 112 2 112 28 4 c15 2 -2 4 -38 4
-36 0 -51 -2 -33 -4z"/>
<path d="M1350 2175 c0 -103 2 -115 18 -114 10 0 12 3 5 6 -8 3 -13 25 -13 58
0 33 5 55 13 58 10 4 10 6 0 6 -9 1 -13 17 -13 46 l0 44 58 4 57 3 -62 2 -63
2 0 -115z"/>
<path d="M2690 2273 c0 -12 3 -14 8 -6 4 6 25 13 47 16 40 4 40 4 -7 5 -40 2
-48 -1 -48 -15z"/>
<path d="M2900 2175 c0 -103 2 -115 18 -114 10 0 12 3 5 6 -8 3 -13 25 -13 58
0 33 5 55 13 58 10 4 10 6 0 6 -9 1 -13 17 -13 46 l0 44 58 4 57 3 -62 2 -63
2 0 -115z"/>
<path d="M3346 2281 c-5 -8 84 -3 93 5 2 2 -16 4 -42 4 -25 0 -48 -4 -51 -9z"/>
<path d="M4672 2191 c-2 -89 1 -106 16 -117 9 -7 24 -13 32 -14 8 0 4 6 -10
13 -24 12 -25 18 -31 117 l-5 105 -2 -104z"/>
<path d="M4802 2210 c-3 -109 -8 -127 -41 -139 -14 -5 -20 -10 -13 -10 49 -3
65 40 60 159 l-4 75 -2 -85z"/>
<path d="M4900 2282 c0 -4 17 -6 38 -4 58 5 62 10 10 11 -27 1 -48 -3 -48 -7z"/>
<path d="M5100 2175 c0 -103 2 -115 18 -114 10 0 12 3 5 6 -9 3 -13 35 -13
108 l0 104 43 4 42 4 -47 1 -48 2 0 -115z"/>
<path d="M5622 2283 l27 -4 4 -112 3 -112 2 112 2 112 28 4 c15 2 0 4 -33 4
-33 0 -48 -2 -33 -4z"/>
<path d="M5770 2175 c0 -63 3 -115 8 -115 4 0 5 27 4 59 l-4 60 44 4 43 4 -42
1 -43 2 0 45 0 44 58 4 57 3 -62 2 -63 2 0 -115z"/>
<path d="M6920 2175 c0 -103 2 -115 18 -114 10 0 12 3 5 6 -9 3 -13 35 -13
108 l0 104 43 4 42 4 -47 1 -48 2 0 -115z"/>
<path d="M7180 2282 c0 -4 21 -6 48 -4 75 5 82 10 15 11 -35 0 -63 -2 -63 -7z"/>
<path d="M7530 2175 c0 -103 2 -115 18 -114 10 0 12 3 5 6 -8 3 -13 25 -13 58
0 33 5 55 13 58 10 4 10 6 0 6 -9 1 -13 17 -13 46 l0 44 63 4 62 3 -67 2 -68
2 0 -115z"/>
<path d="M7720 2281 c24 -7 25 -10 31 -116 l5 -110 2 112 2 112 28 4 c15 2 0
4 -33 5 -39 0 -51 -2 -35 -7z"/>
<path d="M7870 2175 c0 -103 2 -115 18 -115 12 0 13 3 5 8 -8 5 -12 41 -12
109 l0 102 57 4 57 3 -62 2 -63 2 0 -115z"/>
<path d="M426 2265 c10 -8 24 -14 29 -14 6 0 1 6 -9 14 -11 8 -24 15 -30 15
-5 0 -1 -7 10 -15z"/>
<path d="M648 2270 c19 -22 14 -57 -10 -74 -25 -18 -17 -21 13 -6 24 14 25 63
2 81 -15 11 -16 11 -5 -1z"/>
<path d="M2798 2270 c6 -8 12 -24 12 -36 0 -26 -15 -40 -55 -48 -38 -8 -52 2
-58 39 -3 20 -4 14 -5 -20 -1 -34 1 -45 8 -35 7 12 12 12 29 -4 12 -11 21 -23
21 -28 0 -14 51 -78 62 -78 5 0 -9 23 -31 52 -41 54 -43 68 -11 68 44 0 67 65
33 91 -15 11 -16 11 -5 -1z"/>
<path d="M5013 2266 c11 -15 8 -51 -5 -64 -7 -7 -26 -13 -42 -13 -19 -1 -24
-3 -13 -6 31 -8 63 5 75 31 9 20 8 28 -6 43 -9 10 -14 14 -9 9z"/>
<path d="M5402 2176 c-54 -111 -58 -121 -43 -112 9 6 21 31 66 129 21 46 39
47 55 5 6 -18 16 -40 21 -48 5 -8 16 -32 25 -52 9 -21 20 -38 25 -38 12 0 15
-9 -44 114 l-53 109 -52 -107z"/>
<path d="M278 2256 c-19 -14 -38 -57 -38 -84 1 -9 7 1 15 23 8 22 22 45 31 52
10 7 16 15 13 17 -2 2 -12 -1 -21 -8z"/>
<path d="M3164 2258 c-21 -34 -94 -191 -90 -195 5 -5 56 85 56 99 0 17 34 68
46 68 10 0 34 -41 34 -60 0 -14 42 -81 47 -76 5 4 -76 176 -82 176 -2 0 -7 -5
-11 -12z"/>
<path d="M3494 2253 c10 -12 22 -37 26 -55 l8 -33 1 30 c1 33 -4 43 -34 65
-20 14 -20 14 -1 -7z"/>
<path d="M5240 2267 c0 -5 9 -20 20 -34 39 -49 14 -148 -40 -159 -42 -10 -46
-12 -17 -13 19 -1 39 9 58 28 24 25 29 38 29 80 0 39 -5 56 -25 78 -13 15 -25
24 -25 20z"/>
<path d="M7073 2236 c9 -13 21 -39 26 -57 10 -32 11 -32 7 -4 -7 45 -24 85
-37 85 -7 0 -6 -8 4 -24z"/>
<path d="M4900 2184 c0 -8 5 -12 10 -9 6 4 8 11 5 16 -9 14 -15 11 -15 -7z"/>
<path d="M540 2179 c0 -5 5 -7 10 -4 6 3 10 8 10 11 0 2 -4 4 -10 4 -5 0 -10
-5 -10 -11z"/>
<path d="M1408 2183 c12 -2 32 -2 45 0 12 2 2 4 -23 4 -25 0 -35 -2 -22 -4z"/>
<path d="M2958 2183 c12 -2 32 -2 45 0 12 2 2 4 -23 4 -25 0 -35 -2 -22 -4z"/>
<path d="M7180 2182 c0 -4 21 -6 48 -4 75 5 82 10 15 11 -35 0 -63 -2 -63 -7z"/>
<path d="M7593 2183 c15 -2 37 -2 50 0 12 2 0 4 -28 4 -27 0 -38 -2 -22 -4z"/>
<path d="M7923 2183 c15 -2 37 -2 50 0 12 2 0 4 -28 4 -27 0 -38 -2 -22 -4z"/>
<path d="M611 2120 c22 -33 45 -60 50 -60 6 0 -6 21 -26 46 -19 26 -35 53 -35
60 0 8 -7 14 -15 14 -11 0 -3 -18 26 -60z"/>
<path d="M3521 2142 c-1 -30 -43 -72 -73 -73 -14 0 -17 -3 -9 -6 38 -15 103
51 88 89 -3 7 -6 3 -6 -10z"/>
<path d="M250 2139 c0 -20 37 -69 52 -69 7 0 2 10 -9 23 -11 12 -25 31 -31 42
-9 16 -11 17 -12 4z"/>
<path d="M2693 2105 c0 -27 2 -38 4 -22 2 15 2 37 0 50 -2 12 -4 0 -4 -28z"/>
<path d="M7077 2110 c-10 -17 -30 -32 -45 -36 -45 -10 -48 -12 -17 -13 34 0
69 25 79 57 10 30 4 27 -17 -8z"/>
<path d="M3341 2103 c-2 -22 11 -43 27 -43 14 0 14 1 0 13 -9 6 -18 19 -21 27
-3 8 -6 10 -6 3z"/>
<path d="M442 2088 c-7 -7 -39 -16 -70 -19 l-57 -6 51 -2 c38 -1 58 4 75 19
13 10 22 19 19 20 -4 0 -12 -6 -18 -12z"/>
<path d="M3260 2070 c0 -5 5 -10 10 -10 6 0 10 5 10 10 0 6 -4 10 -10 10 -5 0
-10 -4 -10 -10z"/>
<path d="M7360 2070 c0 -5 7 -10 16 -10 8 0 12 5 9 10 -3 6 -10 10 -16 10 -5
0 -9 -4 -9 -10z"/>
<path d="M1428 2063 c6 -2 18 -2 25 0 6 3 1 5 -13 5 -14 0 -19 -2 -12 -5z"/>
<path d="M2953 2063 c9 -2 25 -2 35 0 9 3 1 5 -18 5 -19 0 -27 -2 -17 -5z"/>
<path d="M5858 2063 c6 -2 18 -2 25 0 6 3 1 5 -13 5 -14 0 -19 -2 -12 -5z"/>
<path d="M7188 2063 c7 -3 16 -2 19 1 4 3 -2 6 -13 5 -11 0 -14 -3 -6 -6z"/>
<path d="M7278 2063 c7 -3 16 -2 19 1 4 3 -2 6 -13 5 -11 0 -14 -3 -6 -6z"/>
<path d="M7623 2063 c9 -2 23 -2 30 0 6 3 -1 5 -18 5 -16 0 -22 -2 -12 -5z"/>
<path d="M470 1770 c0 -7 1220 -10 3640 -10 2420 0 3640 3 3640 10 0 7 -1220
10 -3640 10 -2420 0 -3640 -3 -3640 -10z"/>
<path d="M785 1475 c-81 -19 -140 -42 -192 -74 -57 -35 -127 -107 -118 -121 3
-5 0 -7 -8 -5 -8 4 -19 -6 -28 -22 -8 -15 -16 -30 -19 -33 -16 -16 -41 -85
-55 -153 -15 -72 -16 -139 -3 -192 3 -11 9 -39 13 -63 17 -104 119 -239 235
-313 49 -31 155 -59 236 -62 100 -4 233 8 247 22 6 6 18 11 27 11 18 0 87 36
107 56 8 8 18 14 22 14 15 0 91 84 91 101 0 9 -18 29 -40 44 l-41 28 -41 -39
c-23 -21 -48 -45 -56 -52 -9 -8 -40 -26 -71 -40 -52 -25 -65 -27 -191 -27
-134 0 -135 0 -194 33 -73 41 -140 104 -174 162 -14 25 -29 47 -32 50 -9 9
-12 42 -13 161 -1 119 1 129 55 220 49 83 175 167 265 176 30 3 55 9 58 13 2
3 46 1 97 -5 108 -14 183 -49 257 -120 45 -43 46 -44 64 -24 10 10 23 19 30
19 7 0 18 10 26 21 12 20 8 26 -50 81 -35 32 -73 61 -86 64 -13 4 -23 10 -23
14 0 5 -15 12 -32 15 -18 4 -38 11 -43 16 -19 14 -160 39 -216 37 -29 -1 -76
-7 -104 -13z m490 -155 c-3 -5 -12 -10 -18 -10 -7 0 -6 4 3 10 19 12 23 12 15
0z m-38 -16 c-3 -3 -12 -4 -19 -1 -8 3 -5 6 6 6 11 1 17 -2 13 -5z m51 -8 c-7
-8 -15 -12 -17 -11 -5 6 10 25 20 25 5 0 4 -6 -3 -14z m-735 -67 c-8 -8 -13
-7 -18 2 -5 8 -4 10 3 5 7 -4 12 -2 12 5 0 7 3 9 7 6 4 -4 2 -12 -4 -18z m-26
-31 c-3 -8 -6 -5 -6 6 -1 11 2 17 5 13 3 -3 4 -12 1 -19z m53 -549 c0 -5 -4
-9 -8 -9 -5 0 -9 7 -9 15 0 8 4 12 9 9 4 -3 8 -9 8 -15z m644 -92 c7 -6 6 -7
-4 -4 -8 2 -16 12 -17 23 -2 13 -1 15 4 4 3 -8 11 -19 17 -23z m-649 -5 c-3
-3 -11 0 -18 7 -9 10 -8 11 6 5 10 -3 15 -9 12 -12z m560 -32 c3 -6 -1 -7 -9
-4 -18 7 -21 14 -7 14 6 0 13 -4 16 -10z m-388 -46 c-3 -3 -12 -4 -19 -1 -8 3
-5 6 6 6 11 1 17 -2 13 -5z"/>
<path d="M2852 1463 c-9 -7 -12 -116 -10 -509 l3 -499 55 0 55 0 3 227 c2 203
4 227 20 233 16 6 22 2 81 -70 9 -11 23 -31 32 -45 9 -14 27 -36 39 -50 12
-14 40 -49 62 -77 22 -29 45 -50 51 -46 6 3 7 1 3 -5 -4 -7 -2 -17 4 -24 9
-12 21 -27 89 -116 22 -30 28 -32 87 -32 66 0 90 14 61 35 -10 7 -17 17 -17
23 0 6 -3 12 -8 14 -8 3 -62 72 -192 243 -46 61 -88 113 -93 116 -24 16 5 34
72 45 89 15 153 52 196 113 29 42 30 46 30 157 0 67 -4 118 -10 122 -6 4 -18
19 -28 34 -24 38 -94 83 -152 97 -60 15 -415 26 -433 14z m479 -58 c0 -5 -5
-11 -13 -13 -10 -3 -10 -1 1 6 11 8 10 11 -5 15 -16 5 -16 6 -1 4 10 -1 18 -6
18 -12z m-36 -53 c-3 -3 -11 0 -18 7 -9 10 -8 11 6 5 10 -3 15 -9 12 -12z
m-37 -12 c2 -6 12 -10 22 -10 10 0 28 -12 39 -26 11 -14 24 -23 29 -20 5 3 8
-35 8 -84 -1 -87 -1 -89 -34 -118 -19 -17 -53 -37 -78 -45 -56 -18 -265 -22
-276 -4 -9 14 -11 288 -2 310 4 12 30 14 147 10 79 -2 143 -8 145 -13z m105
-295 c-3 -9 -8 -14 -10 -11 -3 3 -2 9 2 15 9 16 15 13 8 -4z m-243 -146 c0 -6
-4 -7 -10 -4 -5 3 -10 11 -10 16 0 6 5 7 10 4 6 -3 10 -11 10 -16z m24 -14
c-4 -8 -8 -15 -10 -15 -2 0 -4 7 -4 15 0 8 4 15 10 15 5 0 7 -7 4 -15z m1 -43
c-3 -3 -11 0 -18 7 -9 10 -8 11 6 5 10 -3 15 -9 12 -12z m48 -97 c-3 -9 -8
-14 -10 -11 -3 3 -2 9 2 15 9 16 15 13 8 -4z m72 -75 c-3 -5 -12 -10 -18 -10
-7 0 -6 4 3 10 19 12 23 12 15 0z m21 -22 c4 -7 3 -8 -4 -4 -7 4 -12 2 -12 -5
0 -7 -3 -10 -6 -6 -6 5 3 27 11 27 2 0 7 -5 11 -12z m141 -174 c-3 -3 -12 -4
-19 -1 -8 3 -5 6 6 6 11 1 17 -2 13 -5z"/>
<path d="M4996 1454 c-9 -22 -6 -556 3 -694 5 -76 14 -128 26 -153 25 -53 86
-111 150 -141 48 -22 70 -26 153 -27 98 -1 152 7 152 21 0 4 10 11 23 14 20 6
97 70 97 81 0 3 11 23 24 44 38 59 47 180 44 546 l-3 320 -46 3 c-29 2 -50 -2
-57 -10 -8 -10 -12 -134 -14 -396 -2 -268 -6 -385 -14 -390 -6 -4 -14 -17 -18
-30 -4 -12 -23 -34 -42 -48 -18 -14 -32 -30 -29 -34 8 -13 -209 -6 -225 8 -8
7 -27 21 -42 32 -63 47 -63 48 -66 470 -2 286 -6 386 -15 392 -23 15 -94 9
-101 -8z m624 -794 c0 -6 -9 -2 -20 7 -11 10 -20 19 -20 21 0 1 9 -2 20 -8 11
-6 20 -15 20 -20z m-17 -35 c-3 -9 -8 -14 -10 -11 -3 3 -2 9 2 15 9 16 15 13
8 -4z m-416 -81 c-3 -3 -12 -4 -19 -1 -8 3 -5 6 6 6 11 1 17 -2 13 -5z m20
-39 c0 -8 -4 -12 -9 -9 -5 3 -6 10 -3 15 9 13 12 11 12 -6z"/>
<path d="M7220 959 l0 -510 228 4 c233 4 311 13 372 44 57 29 111 74 103 86
-3 7 -3 9 2 5 9 -8 60 45 76 77 5 11 13 27 18 35 37 64 54 169 47 285 -8 148
-49 247 -139 337 -29 29 -71 62 -93 72 -21 10 -48 24 -59 29 -43 23 -245 45
-417 46 l-138 1 0 -511z m117 475 c-3 -3 -12 -4 -19 -1 -8 3 -5 6 6 6 11 1 17
-2 13 -5z m288 -95 c5 -5 22 -9 38 -9 30 0 118 -36 128 -53 4 -5 13 -6 20 -2
8 5 11 5 8 1 -4 -4 10 -25 31 -48 21 -22 46 -56 55 -76 9 -21 21 -46 28 -57 6
-11 13 -69 15 -130 3 -95 1 -118 -18 -165 -25 -64 -94 -160 -115 -160 -8 0
-15 -3 -15 -8 0 -12 -62 -41 -115 -53 -27 -7 -119 -14 -202 -16 l-153 -4 0
401 0 402 143 -7 c78 -4 146 -11 152 -16z m345 -95 c0 -2 -9 0 -20 6 -11 6
-20 13 -20 16 0 2 9 0 20 -6 11 -6 20 -13 20 -16z m-77 -19 c-3 -9 -8 -14 -10
-11 -3 3 -2 9 2 15 9 16 15 13 8 -4z"/>
</g>
</svg>
